<svg xmlns="http://www.w3.org/2000/svg" data-name="Layer 1" viewBox="0 0 32 40" x="0px" y="0px"><path d="m23,4h-14c-2.76,0-5,2.24-5,5v14c0,2.76,2.24,5,5,5h14c2.76,0,5-2.24,5-5v-14c0-2.76-2.24-5-5-5Zm3,19c0,1.65-1.35,3-3,3h-14c-1.65,0-3-1.35-3-3v-14c0-1.65,1.35-3,3-3h14c1.65,0,3,1.35,3,3v14Z"/><path d="m16,9c-3.86,0-7,3.14-7,7s3.14,7,7,7,7-3.14,7-7-3.14-7-7-7Zm0,12c-2.76,0-5-2.24-5-5s2.24-5,5-5,5,2.24,5,5-2.24,5-5,5Z"/><circle cx="23" cy="9" r="1"/><text x="0" y="47" fill="#2F4538" font-size="5px" font-weight="bold" font-family="'Helvetica Neue', Helvetica, Arial-Unicode, Arial, Sans-serif">Created by Nirmal Raj</text><text x="0" y="52" fill="#2F4538" font-size="5px" font-weight="bold" font-family="'Helvetica Neue', Helvetica, Arial-Unicode, Arial, Sans-serif">from the Noun Project</text></svg>