<svg width="290" height="29" viewBox="0 0 290 29" fill="none" xmlns="http://www.w3.org/2000/svg">
<path d="M4.44006 27.28V1.04002H24.6001V6.60003H10.6801V12.36H23.2001V17.68H10.6801V23.48H25.0401V27.28H28.9201V29H0.560059V27.28H4.44006Z" fill="#2F4538"/>
<path d="M55.6519 11.4L48.0919 26.68H44.3719L36.8519 11.4V29H26.7319V27.28H30.6119V1.04002H39.0519L46.2519 16.4L53.4919 1.04002H61.8919V27.28H65.7719V29H55.6519V11.4Z" fill="#2F4538"/>
<path d="M78.456 27.28V29H65.336V27.28H68.776V1.04002H75.016V27.28H78.456Z" fill="#2F4538"/>
<path d="M103.941 27.28V29H78.021V27.28H81.901V1.04002H88.141V23.44H100.061V27.28H103.941Z" fill="#2F4538"/>
<path d="M123.493 27.28V29H98.7735V27.28H108.013V17.96L98.3335 1.04002H105.093L111.133 11.44L117.174 1.04002H123.933L114.253 17.96V27.28H123.493Z" fill="#2F4538"/>
<path d="M134.06 27.28V29H123.5V27.28H134.06Z" fill="#2F4538"/>
<path d="M137.487 27.28V1.04002H148.087C152.434 1.04002 155.527 1.77336 157.367 3.24002C159.234 4.70669 160.167 7.06669 160.167 10.32C160.167 14.8 158.394 17.6934 154.847 19L160.687 27.28H164.447V29H154.247L148.047 20.08H143.727V29H133.607V27.28H137.487ZM148.287 14.68C150.42 14.68 151.874 14.3334 152.647 13.64C153.42 12.9467 153.807 11.8534 153.807 10.36C153.807 8.84003 153.407 7.80003 152.607 7.24002C151.807 6.68003 150.407 6.40003 148.407 6.40003H143.727V14.68H148.287Z" fill="#2F4538"/>
<path d="M196.989 27.28V29H186.469L183.869 22.96H172.149L169.549 29H159.029V27.28H163.629L174.989 1.04002H181.029L192.349 27.28H196.989ZM178.029 9.36002L174.509 17.48H181.509L178.029 9.36002Z" fill="#2F4538"/>
<path d="M221.394 11.4L213.834 26.68H210.114L202.594 11.4V29H192.474V27.28H196.354V1.04002H204.794L211.994 16.4L219.234 1.04002H227.634V27.28H231.514V29H221.394V11.4Z" fill="#2F4538"/>
<path d="M264.118 27.28V29H231.078V27.28H239.998C237.812 26.0267 236.078 24.3067 234.798 22.12C233.545 19.9334 232.918 17.5067 232.918 14.84C232.918 10.7334 234.332 7.30669 237.158 4.56003C239.985 1.78669 243.465 0.400024 247.598 0.400024C251.732 0.400024 255.212 1.78669 258.038 4.56003C260.865 7.30669 262.278 10.7334 262.278 14.84C262.278 17.5067 261.638 19.9334 260.358 22.12C259.078 24.3067 257.358 26.0267 255.198 27.28H264.118ZM255.918 14.88C255.918 12.3734 255.118 10.24 253.518 8.48003C251.918 6.72002 249.945 5.84002 247.598 5.84002C245.278 5.84002 243.318 6.72002 241.718 8.48003C240.118 10.24 239.318 12.3734 239.318 14.88C239.318 17.36 240.118 19.48 241.718 21.24C243.318 22.9734 245.278 23.84 247.598 23.84C249.945 23.84 251.918 22.9734 253.518 21.24C255.118 19.48 255.918 17.36 255.918 14.88Z" fill="#2F4538"/>
<path d="M289.645 27.28V29H264.125V27.28H269.565C268.098 26.5334 266.765 25.5734 265.565 24.4L269.285 19.84C272.298 22.48 275.085 23.8 277.645 23.8C278.792 23.8 279.685 23.56 280.325 23.08C280.992 22.5734 281.325 21.9067 281.325 21.08C281.325 20.2267 280.978 19.56 280.285 19.08C279.592 18.5734 278.218 18.0667 276.165 17.56C272.912 16.7867 270.525 15.7867 269.005 14.56C267.512 13.3067 266.765 11.36 266.765 8.72002C266.765 6.05336 267.712 4.00002 269.605 2.56003C271.525 1.12002 273.912 0.400024 276.765 0.400024C278.632 0.400024 280.498 0.720024 282.365 1.36002C284.232 2.00002 285.858 2.90669 287.245 4.08002L284.085 8.64003C281.658 6.80003 279.152 5.88003 276.565 5.88003C275.525 5.88003 274.698 6.13336 274.085 6.64003C273.498 7.12003 273.205 7.77336 273.205 8.60002C273.205 9.40002 273.565 10.04 274.285 10.52C275.032 11 276.725 11.5734 279.365 12.24C282.032 12.88 284.098 13.8534 285.565 15.16C287.032 16.4667 287.765 18.28 287.765 20.6C287.765 23.48 286.685 25.7067 284.525 27.28H289.645Z" fill="#2F4538"/>
</svg>
