<svg xmlns="http://www.w3.org/2000/svg" version="1.1" viewBox="-5.0 -10.0 110.0 135.0">
 <path d="m81.668 0h-63.336c-4.8594 0.0039062-9.5195 1.9375-12.957 5.375s-5.3711 8.0977-5.375 12.957v63.336c0.0039062 4.8594 1.9375 9.5195 5.375 12.957s8.0977 5.3711 12.957 5.375h63.336c4.8594-0.003906 9.5195-1.9375 12.957-5.375s5.3711-8.0977 5.375-12.957v-63.336c-0.003906-4.8594-1.9375-9.5195-5.375-12.957s-8.0977-5.3711-12.957-5.375zm-63.336 3.332h63.336c3.1211 0.007813 6.1641 0.98828 8.7031 2.8047 2.5391 1.8164 4.4492 4.3789 5.4609 7.3281l-41.625 41.469c-2.3281 2.3086-6.082 2.3086-8.4141 0l-41.625-41.469c1.0117-2.9492 2.9219-5.5117 5.4609-7.3281 2.5391-1.8164 5.582-2.7969 8.7031-2.8047zm78.332 15 0.003907 63.336c0 0.31641-0.027344 0.625-0.046875 0.9375l-32.738-32.605 32.734-32.602c0.019531 0.30859 0.050781 0.61719 0.050781 0.93359zm-93.332 63.336v-63.336c0-0.31641 0.027344-0.625 0.046875-0.9375l32.738 32.605-32.734 32.602c-0.019531-0.30859-0.050781-0.61719-0.050781-0.93359zm78.332 15h-63.332c-3.1211-0.007813-6.1602-0.98828-8.6992-2.8047-2.5391-1.8125-4.4492-4.375-5.4648-7.3281l34.312-34.18 4.9609 4.9414c3.6328 3.5938 9.4844 3.5938 13.121 0l4.9609-4.9414 34.309 34.18c-1.0156 2.9531-2.9258 5.5156-5.4648 7.3281-2.5391 1.8164-5.5781 2.7969-8.6992 2.8047z"/>
<text x="0.0" y="117.5" font-size="5.0" font-weight="bold" font-family="Arbeit Regular, Helvetica, Arial-Unicode, Arial, Sans-serif" fill="#00000000">Created by Juicy Fish</text><text x="0.0" y="122.5" font-size="5.0" font-weight="bold" font-family="Arbeit Regular, Helvetica, Arial-Unicode, Arial, Sans-serif" fill="#00000000">from Noun Project</text></svg>